<svg xmlns="http://www.w3.org/2000/svg" viewBox="0 0 1200 630" fill="none">
  <defs>
    <linearGradient id="orangeG" x1="0" y1="0" x2="1" y2="1">
      <stop offset="0%" stop-color="#FFF7ED"/>
      <stop offset="100%" stop-color="#FED7AA"/>
    </linearGradient>
    <linearGradient id="blueG" x1="0" y1="0" x2="1" y2="1">
      <stop offset="0%" stop-color="#EFF6FF"/>
      <stop offset="100%" stop-color="#BFDBFE"/>
    </linearGradient>
    <linearGradient id="greenG" x1="0" y1="0" x2="1" y2="1">
      <stop offset="0%" stop-color="#ECFDF5"/>
      <stop offset="100%" stop-color="#A7F3D0"/>
    </linearGradient>
    <linearGradient id="purpleG" x1="0" y1="0" x2="1" y2="1">
      <stop offset="0%" stop-color="#F5F3FF"/>
      <stop offset="100%" stop-color="#DDD6FE"/>
    </linearGradient>
  </defs>

  <!-- Background: clean white -->
  <rect width="1200" height="630" fill="#FAFBFC"/>

  <!-- Grid pattern -->
  <g opacity="0.4" stroke="#E2E8F0" stroke-width="0.5">
    <line x1="0" y1="0" x2="0" y2="630"/><line x1="48" y1="0" x2="48" y2="630"/><line x1="96" y1="0" x2="96" y2="630"/><line x1="144" y1="0" x2="144" y2="630"/><line x1="192" y1="0" x2="192" y2="630"/><line x1="240" y1="0" x2="240" y2="630"/><line x1="288" y1="0" x2="288" y2="630"/><line x1="336" y1="0" x2="336" y2="630"/><line x1="384" y1="0" x2="384" y2="630"/><line x1="432" y1="0" x2="432" y2="630"/><line x1="480" y1="0" x2="480" y2="630"/><line x1="528" y1="0" x2="528" y2="630"/><line x1="576" y1="0" x2="576" y2="630"/><line x1="624" y1="0" x2="624" y2="630"/><line x1="672" y1="0" x2="672" y2="630"/><line x1="720" y1="0" x2="720" y2="630"/><line x1="768" y1="0" x2="768" y2="630"/><line x1="816" y1="0" x2="816" y2="630"/><line x1="864" y1="0" x2="864" y2="630"/><line x1="912" y1="0" x2="912" y2="630"/><line x1="960" y1="0" x2="960" y2="630"/><line x1="1008" y1="0" x2="1008" y2="630"/><line x1="1056" y1="0" x2="1056" y2="630"/><line x1="1104" y1="0" x2="1104" y2="630"/><line x1="1152" y1="0" x2="1152" y2="630"/><line x1="1200" y1="0" x2="1200" y2="630"/>
    <line x1="0" y1="0" x2="1200" y2="0"/><line x1="0" y1="48" x2="1200" y2="48"/><line x1="0" y1="96" x2="1200" y2="96"/><line x1="0" y1="144" x2="1200" y2="144"/><line x1="0" y1="192" x2="1200" y2="192"/><line x1="0" y1="240" x2="1200" y2="240"/><line x1="0" y1="288" x2="1200" y2="288"/><line x1="0" y1="336" x2="1200" y2="336"/><line x1="0" y1="384" x2="1200" y2="384"/><line x1="0" y1="432" x2="1200" y2="432"/><line x1="0" y1="480" x2="1200" y2="480"/><line x1="0" y1="528" x2="1200" y2="528"/><line x1="0" y1="576" x2="1200" y2="576"/><line x1="0" y1="624" x2="1200" y2="624"/>
  </g>

  <!-- ═══ TITLE AREA (top) ═══ -->
  <text x="600" y="68" text-anchor="middle" font-family="system-ui, sans-serif" font-size="11" fill="#94A3B8" letter-spacing="3" font-weight="600">AUTOFLOW VN</text>
  <text x="600" y="108" text-anchor="middle" font-family="system-ui, sans-serif" font-size="30" fill="#0F172A" font-weight="800">4 Workflow Zalo OA Cho F&amp;B</text>
  <text x="600" y="138" text-anchor="middle" font-family="system-ui, sans-serif" font-size="13" fill="#94A3B8">Chạy 24/7 · 0 nhân viên thêm · Kết quả trong 2 tuần</text>

  <!-- ═══ WORKFLOW CARDS (bottom) ═══ -->

  <!-- Card 1: Đơn hàng — Orange -->
  <g>
    <rect x="48" y="190" width="258" height="200" rx="16" fill="white" stroke="#F59E0B" stroke-width="1" stroke-opacity="0.3"/>
    <!-- Icon circle -->
    <rect x="68" y="210" width="40" height="40" rx="12" fill="url(#orangeG)"/>
    <text x="88" y="237" text-anchor="middle" font-size="18">📱</text>
    <!-- Title -->
    <text x="120" y="228" font-family="system-ui, sans-serif" font-size="13" fill="#0F172A" font-weight="700">Xác nhận đơn hàng</text>
    <text x="120" y="244" font-family="system-ui, sans-serif" font-size="10" fill="#94A3B8">Tự động trong 30 giây</text>
    <!-- Mini flow -->
    <g transform="translate(68, 268)">
      <rect width="218" height="36" rx="8" fill="#FFFBEB" opacity="0.6"/>
      <circle cx="20" cy="18" r="6" fill="#FEF3C7" stroke="#F59E0B" stroke-width="1"/>
      <text x="20" y="21" text-anchor="middle" font-size="7" fill="#D97706">1</text>
      <line x1="30" y1="18" x2="52" y2="18" stroke="#F59E0B" stroke-width="1" stroke-opacity="0.3"/>
      <text x="42" y="15" font-size="6" fill="#F59E0B">→</text>
      <circle cx="66" cy="18" r="6" fill="#FEF3C7" stroke="#F59E0B" stroke-width="1"/>
      <text x="66" y="21" text-anchor="middle" font-size="7" fill="#D97706">2</text>
      <line x1="76" y1="18" x2="98" y2="18" stroke="#F59E0B" stroke-width="1" stroke-opacity="0.3"/>
      <text x="88" y="15" font-size="6" fill="#F59E0B">→</text>
      <circle cx="112" cy="18" r="6" fill="#FEF3C7" stroke="#F59E0B" stroke-width="1"/>
      <text x="112" y="21" text-anchor="middle" font-size="7" fill="#D97706">3</text>
      <line x1="122" y1="18" x2="144" y2="18" stroke="#F59E0B" stroke-width="1" stroke-opacity="0.3"/>
      <text x="134" y="15" font-size="6" fill="#F59E0B">→</text>
      <circle cx="158" cy="18" r="6" fill="#FEF3C7" stroke="#F59E0B" stroke-width="1"/>
      <text x="158" y="21" text-anchor="middle" font-size="7" fill="#D97706">4</text>
      <text x="178" y="21" font-size="7" fill="#D97706" font-weight="600">✓</text>
    </g>
    <!-- Labels -->
    <text x="76" y="326" font-family="system-ui, sans-serif" font-size="8" fill="#94A3B8">GrabFood</text>
    <text x="122" y="326" font-family="system-ui, sans-serif" font-size="8" fill="#94A3B8">n8n</text>
    <text x="152" y="326" font-family="system-ui, sans-serif" font-size="8" fill="#94A3B8">Google Sheet</text>
    <text x="218" y="326" font-family="system-ui, sans-serif" font-size="8" fill="#94A3B8">Zalo + Bếp</text>
    <!-- Metric -->
    <rect x="68" y="346" width="80" height="28" rx="8" fill="#FEF3C7" opacity="0.5"/>
    <text x="108" y="364" text-anchor="middle" font-family="system-ui, sans-serif" font-size="11" fill="#D97706" font-weight="800">0 giờ nhập tay</text>
  </g>

  <!-- Arrow 1→2 -->
  <path d="M 316 290 C 340 290, 340 290, 356 290" stroke="#CBD5E1" stroke-width="1.5" fill="none"/>
  <polygon points="354,286 362,290 354,294" fill="#CBD5E1"/>

  <!-- Card 2: Đặt bàn — Blue -->
  <g>
    <rect x="366" y="190" width="222" height="200" rx="16" fill="white" stroke="#3B82F6" stroke-width="1" stroke-opacity="0.3"/>
    <rect x="386" y="210" width="40" height="40" rx="12" fill="url(#blueG)"/>
    <text x="406" y="237" text-anchor="middle" font-size="18">📅</text>
    <text x="438" y="228" font-family="system-ui, sans-serif" font-size="13" fill="#0F172A" font-weight="700">Nhắc lịch đặt bàn</text>
    <text x="438" y="244" font-family="system-ui, sans-serif" font-size="10" fill="#94A3B8">24h + 2h trước tự động</text>
    <!-- Timeline -->
    <g transform="translate(386, 268)">
      <rect width="182" height="36" rx="8" fill="#EFF6FF" opacity="0.6"/>
      <circle cx="25" cy="18" r="6" fill="#DBEAFE" stroke="#3B82F6" stroke-width="1"/>
      <text x="25" y="21" text-anchor="middle" font-size="6" fill="#2563EB">24h</text>
      <line x1="35" y1="18" x2="70" y2="18" stroke="#3B82F6" stroke-width="1" stroke-opacity="0.3" stroke-dasharray="3 2"/>
      <circle cx="82" cy="18" r="6" fill="#DBEAFE" stroke="#3B82F6" stroke-width="1"/>
      <text x="82" y="21" text-anchor="middle" font-size="6" fill="#2563EB">2h</text>
      <line x1="92" y1="18" x2="127" y2="18" stroke="#3B82F6" stroke-width="1" stroke-opacity="0.3" stroke-dasharray="3 2"/>
      <circle cx="140" cy="18" r="8" fill="#3B82F6" opacity="0.15"/>
      <text x="140" y="21" text-anchor="middle" font-size="8" fill="#2563EB">✓</text>
    </g>
    <rect x="386" y="346" width="80" height="28" rx="8" fill="#DBEAFE" opacity="0.5"/>
    <text x="426" y="364" text-anchor="middle" font-family="system-ui, sans-serif" font-size="11" fill="#2563EB" font-weight="800">-80% miss</text>
  </g>

  <!-- Arrow 2→3 -->
  <path d="M 598 290 C 622 290, 622 290, 638 290" stroke="#CBD5E1" stroke-width="1.5" fill="none"/>
  <polygon points="636,286 644,290 636,294" fill="#CBD5E1"/>

  <!-- Card 3: Chăm sóc — Green -->
  <g>
    <rect x="648" y="190" width="222" height="200" rx="16" fill="white" stroke="#10B981" stroke-width="1" stroke-opacity="0.3"/>
    <rect x="668" y="210" width="40" height="40" rx="12" fill="url(#greenG)"/>
    <text x="688" y="237" text-anchor="middle" font-size="18">⭐</text>
    <text x="720" y="228" font-family="system-ui, sans-serif" font-size="13" fill="#0F172A" font-weight="700">Chăm sóc sau ăn</text>
    <text x="720" y="244" font-family="system-ui, sans-serif" font-size="10" fill="#94A3B8">Feedback + Google Review</text>
    <!-- Rating visualization -->
    <g transform="translate(668, 268)">
      <rect width="182" height="36" rx="8" fill="#ECFDF5" opacity="0.6"/>
      <text x="16" y="22" font-size="7" fill="#059669" font-weight="600">2h sau</text>
      <text x="52" y="19" font-size="6" fill="#10B981">→</text>
      <text x="66" y="22" font-size="7" fill="#059669" font-weight="600">Cảm ơn</text>
      <text x="102" y="19" font-size="6" fill="#10B981">→</text>
      <text x="116" y="22" font-size="7" fill="#059669" font-weight="600">Rating</text>
      <text x="152" y="19" font-size="6" fill="#10B981">→</text>
      <text x="170" y="22" font-size="7" fill="#059669" font-weight="600">⭐</text>
    </g>
    <rect x="668" y="346" width="90" height="28" rx="8" fill="#D1FAE5" opacity="0.5"/>
    <text x="713" y="364" text-anchor="middle" font-family="system-ui, sans-serif" font-size="11" fill="#059669" font-weight="800">4.1 → 4.6 ⭐</text>
  </g>

  <!-- Arrow 3→4 -->
  <path d="M 880 290 C 904 290, 904 290, 920 290" stroke="#CBD5E1" stroke-width="1.5" fill="none"/>
  <polygon points="918,286 926,290 918,294" fill="#CBD5E1"/>

  <!-- Card 4: Khuyến mãi — Purple -->
  <g>
    <rect x="930" y="190" width="222" height="200" rx="16" fill="white" stroke="#8B5CF6" stroke-width="1" stroke-opacity="0.3"/>
    <rect x="950" y="210" width="40" height="40" rx="12" fill="url(#purpleG)"/>
    <text x="970" y="237" text-anchor="middle" font-size="18">🎁</text>
    <text x="1002" y="228" font-family="system-ui, sans-serif" font-size="13" fill="#0F172A" font-weight="700">Khuyến mãi</text>
    <text x="1002" y="244" font-family="system-ui, sans-serif" font-size="10" fill="#94A3B8">Cá nhân hóa theo hành vi</text>
    <!-- Tags -->
    <g transform="translate(950, 268)">
      <rect width="182" height="36" rx="8" fill="#F5F3FF" opacity="0.6"/>
      <rect x="10" y="8" width="58" height="20" rx="10" fill="#EDE9FE"/>
      <text x="39" y="22" text-anchor="middle" font-size="7" fill="#7C3AED" font-weight="600">Coffee Lover</text>
      <rect x="76" y="8" width="46" height="20" rx="10" fill="#EDE9FE"/>
      <text x="99" y="22" text-anchor="middle" font-size="7" fill="#7C3AED" font-weight="600">Gia đình</text>
      <rect x="130" y="8" width="42" height="20" rx="10" fill="#EDE9FE"/>
      <text x="151" y="22" text-anchor="middle" font-size="7" fill="#7C3AED" font-weight="600">VIP ✨</text>
    </g>
    <rect x="950" y="346" width="90" height="28" rx="8" fill="#EDE9FE" opacity="0.5"/>
    <text x="995" y="364" text-anchor="middle" font-family="system-ui, sans-serif" font-size="11" fill="#7C3AED" font-weight="800">+40% quay lại</text>
  </g>

  <!-- ═══ BOTTOM BAR ═══ -->
  <rect x="48" y="420" width="1104" height="52" rx="12" fill="white" stroke="#E2E8F0" stroke-width="1"/>
  <!-- Zalo OA center badge -->
  <rect x="520" y="428" width="160" height="36" rx="18" fill="#0068FF" opacity="0.08"/>
  <text x="600" y="450" text-anchor="middle" font-family="system-ui, sans-serif" font-size="12" fill="#0068FF" font-weight="700">💬 Tất cả qua Zalo OA</text>

  <!-- Left stats -->
  <text x="140" y="444" text-anchor="middle" font-family="system-ui, sans-serif" font-size="10" fill="#64748B">4 workflows</text>
  <text x="300" y="444" text-anchor="middle" font-family="system-ui, sans-serif" font-size="10" fill="#64748B">24/7 hoạt động</text>

  <!-- Right stats -->
  <text x="900" y="444" text-anchor="middle" font-family="system-ui, sans-serif" font-size="10" fill="#64748B">2 tuần triển khai</text>
  <text x="1060" y="444" text-anchor="middle" font-family="system-ui, sans-serif" font-size="10" fill="#64748B">0 nhân viên thêm</text>

  <!-- Footer -->
  <text x="600" y="570" text-anchor="middle" font-family="system-ui, sans-serif" font-size="10" fill="#CBD5E1">autoflowvn.net</text>
</svg>
